<svg id="Capa_1" data-name="Capa 1" xmlns="http://www.w3.org/2000/svg" viewBox="0 0 496 496"><defs><style>.cls-1{fill:#fff;}</style></defs><title>grimace-regular</title><path class="cls-1" d="M248,8C111,8,0,119,0,256S111,504,248,504,496,393,496,256,385,8,248,8Zm0,448C137.7,456,48,366.3,48,256S137.7,56,248,56s200,89.7,200,200S358.3,456,248,456ZM168,240a32,32,0,1,0-32-32A32,32,0,0,0,168,240Zm160,0a32,32,0,1,0-32-32A32,32,0,0,0,328,240Zm16,16H152a48,48,0,0,0-48,48v32a48,48,0,0,0,48,48H344a48,48,0,0,0,48-48V304A48,48,0,0,0,344,256ZM176,352H152a16,16,0,0,1-16-16v-8h40Zm0-40H136v-8a16,16,0,0,1,16-16h24Zm64,40H192V328h48Zm0-40H192V288h48Zm64,40H256V328h48Zm0-40H256V288h48Zm56,24a16,16,0,0,1-16,16H320V328h40Zm0-24H320V288h24a16,16,0,0,1,16,16Z" transform="translate(0 -8)"/></svg>